<?xml version="1.0" encoding="UTF-8"?>
<svg xmlns="http://www.w3.org/2000/svg" width="512" height="474">
<path style="fill:#145fa6" d="M 0 0 H 512 V 474 H 0 Z"/>
<path style="fill:#ffffff" d="M 35.5 35.5 L 35.5 438.5 L 476.5 438.5 L 476.5 35.5 L 35.5 35.5 z M 42 42 L 470 42 L 470 432 L 42 432 L 42 42 z M 220.12695 103 L 220.12695 193 L 238.125 193 L 238.125 157.75586 L 262.04297 193 L 284.32227 193 L 252.60547 147.43164 L 281.80664 103 L 260.7832 103 L 238.125 138.875 L 238.125 103 L 220.12695 103 z M 220.11914 229 L 220.11914 319 L 246.92969 319 C 306.84728 319 306.84728 229 246.92969 229 L 220.11914 229 z M 238.11719 247 L 246.92969 247 C 281.92346 247 281.92346 301.00195 246.92969 301.00195 L 238.11719 301.00195 L 238.11719 247 z M 196.5 355 L 196.5 361 L 315.5 361 L 315.5 355 L 196.5 355 z"/>
</svg>