<?xml version="1.0" encoding="UTF-8" standalone="no"?>
<svg
   xmlns:dc="http://purl.org/dc/elements/1.1/"
   xmlns:cc="http://creativecommons.org/ns#"
   xmlns:rdf="http://www.w3.org/1999/02/22-rdf-syntax-ns#"
   xmlns:svg="http://www.w3.org/2000/svg"
   xmlns="http://www.w3.org/2000/svg"
   id="svg8"
   version="1.1"
   viewBox="0 0 47.504288 50.516788"
   height="50.516788mm"
   width="47.504288mm">
  <defs
     id="defs2">
	
	
	
</defs>
  <metadata
     id="metadata5">
    <rdf:RDF>
      <cc:Work
         rdf:about="">
        <dc:format>image/svg+xml</dc:format>
        <dc:type
           rdf:resource="http://purl.org/dc/dcmitype/StillImage" />
        <dc:title></dc:title>
      </cc:Work>
    </rdf:RDF>
  </metadata>
  <g
     transform="translate(-32.715032,-115.25947)"
     id="layer1">
    <g
       transform="matrix(0.26458333,0,0,0.26458333,18.152957,75.378609)"
       id="g4897">
		<g
   id="g4755">
			<path
   id="path4753"
   d="m 201.4,312.3 c -3.4,2 -10.8,6.5 -24.5,-1.2 -13.7,-7.6 -28.2,-30.6 -28.2,-30.6 l -2.2,0.7 c 7.7,14.5 23.8,31.6 33.8,35.4 10,3.8 17.7,1.1 21.8,-2.2 7,-5.8 7.8,-12.1 8,-14.1 0.1,0.1 -3.8,9.1 -8.7,12 z"
   class="st1"
   style="fill:#262a5e" />

		</g>

		<path
   id="path4757"
   d="m 157.5,251.7 c 0,0 23.1,-10.8 28.1,-14.3 5,-3.4 15.6,-10.8 15.6,-10.8 0,0 -7,7.2 -20.1,15 -9.4,5.6 -22.9,11.6 -22.9,11.6 z"
   class="st1"
   style="fill:#262a5e" />

		<path
   id="path4759"
   d="m 128.9,279.2 c 0,0 -9.5,17.4 -4,32.3 5.5,14.9 15,27 24.2,25.9 9.2,-1.2 20.8,-8.6 20.6,-20.9 0,0 2.4,10.8 -10.3,20.6 -8.2,6.4 -21.8,7.7 -31.9,-7 -2.8,-4.1 -8.7,-13.1 -7.7,-29.6 0.9,-14.9 7.3,-22.2 7.3,-22.2 z"
   class="st1"
   style="fill:#262a5e" />

		<path
   id="path4761"
   d="m 121.3,260.3 c 0,0 -19.7,0.9 -26.7,6.6 -7,5.7 -14.1,10.1 -14.9,26.6 -0.3,8.6 5.1,18.7 14.7,23.6 9.6,4.9 19,4.8 20.9,-1.3 0,0 -1.6,9.1 -17.8,5.3 -14.9,-3.5 -21,-16.3 -21.3,-27.8 -0.3,-11.5 8.6,-25.2 22,-30.2 13.5,-5 23.9,-2.8 23.9,-2.8 z"
   class="st1"
   style="fill:#262a5e" />

		<path
   id="path4763"
   d="m 122,258.4 c 0,0 -28,0.3 -41.5,-7.8 -13.5,-8.1 -21.9,-14 -21.4,-34 0.5,-20 16.8,-32.1 25,-29.1 0,0 -13.8,-5.3 -24.1,13 -8.5,15.1 -4.5,31.7 0.3,38.6 3.6,5.2 14.6,20.4 47.7,21.2 l 14,-0.2 z"
   class="st1"
   style="fill:#262a5e" />

		<path
   id="path4765"
   d="m 129.2,244.8 c 0,0 -10.1,-16.8 -12,-25.1 -1.8,-8.3 -8.7,-29.3 1.2,-47.4 9.9,-18.1 24.6,-21.3 36.2,-20.6 0,0 -13.8,-4.7 -29.9,6.6 -15.9,11.2 -17.4,33.1 -14.6,46.8 2.6,12.5 8.9,27.5 17.6,41 z"
   class="st1"
   style="fill:#262a5e" />

		<path
   id="path4767"
   d="m 148.5,243.2 c 0,0 13.1,-41.3 22.9,-53.1 9.8,-11.8 22.7,-19.9 34.6,-16.8 0,0 -38.3,-23.4 -59.1,68.6 z"
   class="st1"
   style="fill:#262a5e" />

		<path
   id="path4769"
   d="m 160.6,266.8 c 0,0 23.1,5.7 41.3,3.4 18.2,-2.2 27.9,-10.6 32.4,-24.2 0,0 5.4,27.9 -31.1,28 -15.2,0.2 -26.1,-2.3 -31.7,-3.1 -11.9,-2.2 -10.4,-2 -10.4,-2 z"
   class="st1"
   style="fill:#262a5e" />

		
			<linearGradient
   gradientTransform="matrix(0.9999,-0.01659783,0.01639234,0.9875,-0.9688,11.6691)"
   y2="258.06061"
   x2="155.76961"
   y1="241.4045"
   x1="227.9151"
   gradientUnits="userSpaceOnUse"
   id="SVGID_1_">
			<stop
   id="stop4771"
   style="stop-color:#60C6F2"
   offset="0.1861" />

			<stop
   id="stop4773"
   style="stop-color:#5AC2F0"
   offset="0.3301" />

			<stop
   id="stop4775"
   style="stop-color:#46B6E9"
   offset="0.4998" />

			<stop
   id="stop4777"
   style="stop-color:#18A4DD"
   offset="0.6825" />

			<stop
   id="stop4779"
   style="stop-color:#008BCD"
   offset="0.8731" />

			<stop
   id="stop4781"
   style="stop-color:#0079BF"
   offset="1" />

		</linearGradient>

		<path
   id="path4784"
   d="m 228.8,234.9 c -7.4,-7.4 -22.1,-4.5 -35.2,2 -10.9,5.5 -35.7,16.1 -35.7,16.1 l 0.9,2.2 c 0.3,3.4 -2.1,7.7 -2.9,10.7 21.2,4.7 56.6,11 70.2,-0.5 11.1,-9.9 10.2,-23.1 2.7,-30.5 z"
   class="st2"
   style="fill:url(#SVGID_1_)" />

		
			<linearGradient
   gradientTransform="matrix(0.9997,-0.02593078,0.02593078,0.9997,-3.5236,0.9199)"
   y2="265.93469"
   x2="123.3745"
   y1="313.6662"
   x1="81.882202"
   gradientUnits="userSpaceOnUse"
   id="SVGID_2_">
			<stop
   id="stop4786"
   style="stop-color:#60C6F2"
   offset="0.1861" />

			<stop
   id="stop4788"
   style="stop-color:#5AC2F0"
   offset="0.3301" />

			<stop
   id="stop4790"
   style="stop-color:#46B6E9"
   offset="0.4998" />

			<stop
   id="stop4792"
   style="stop-color:#18A4DD"
   offset="0.6825" />

			<stop
   id="stop4794"
   style="stop-color:#008BCD"
   offset="0.8731" />

			<stop
   id="stop4796"
   style="stop-color:#0079BF"
   offset="1" />

		</linearGradient>

		<path
   id="path4799"
   d="m 122.2,259.8 c 0,0 -2.5,0 -6.4,0.3 -11.5,0.9 -34.9,5.8 -36.6,31.8 -0.5,11.4 7.3,28.8 28.8,29.3 6.8,-0.1 8.6,-6.2 10.1,-14.9 1.8,-10 4,-20.7 9.9,-27.5 z"
   class="st3"
   style="fill:url(#SVGID_2_)" />

		
			<linearGradient
   gradientTransform="matrix(0.999,-0.04425038,0.04476859,1.0107,-7.2333,-1.6969)"
   y2="281.81491"
   x2="130.9678"
   y1="343.43011"
   x1="145.19279"
   gradientUnits="userSpaceOnUse"
   id="SVGID_3_">
			<stop
   id="stop4801"
   style="stop-color:#60C6F2"
   offset="0.1861" />

			<stop
   id="stop4803"
   style="stop-color:#5AC2F0"
   offset="0.3301" />

			<stop
   id="stop4805"
   style="stop-color:#46B6E9"
   offset="0.4998" />

			<stop
   id="stop4807"
   style="stop-color:#18A4DD"
   offset="0.6825" />

			<stop
   id="stop4809"
   style="stop-color:#008BCD"
   offset="0.8731" />

			<stop
   id="stop4811"
   style="stop-color:#0079BF"
   offset="1" />

		</linearGradient>

		<path
   id="path4814"
   d="m 128.4,279.5 c -7,9.1 -9.6,29.3 -1,44.3 16.4,28.6 34.7,11.3 38.8,5.4 4.3,-6 6,-12.7 -0.1,-21 -6.4,-8.6 -13.1,-13.1 -19.2,-27.1 z"
   class="st4"
   style="fill:url(#SVGID_3_)" />

		
			<linearGradient
   gradientTransform="matrix(0.9997,-0.02593078,0.02593078,0.9997,-3.5236,0.9199)"
   y2="255.90221"
   x2="123.3213"
   y1="203.6089"
   x1="58.744499"
   gradientUnits="userSpaceOnUse"
   id="SVGID_4_">
			<stop
   id="stop4816"
   style="stop-color:#60C6F2"
   offset="0.1861" />

			<stop
   id="stop4818"
   style="stop-color:#5AC2F0"
   offset="0.3301" />

			<stop
   id="stop4820"
   style="stop-color:#46B6E9"
   offset="0.4998" />

			<stop
   id="stop4822"
   style="stop-color:#18A4DD"
   offset="0.6825" />

			<stop
   id="stop4824"
   style="stop-color:#008BCD"
   offset="0.8731" />

			<stop
   id="stop4826"
   style="stop-color:#0079BF"
   offset="1" />

		</linearGradient>

		<path
   id="path4829"
   d="m 128,246.2 c -14.1,-22.8 -22.1,-36.6 -30.6,-47.8 -6.5,-8.5 -11.8,-11.7 -18.2,-11.5 -9.7,0.4 -25.4,18.9 -20,41.8 5.1,21.7 35.3,32.1 63.2,30.1 z"
   class="st5"
   style="fill:url(#SVGID_4_)" />

		
			<linearGradient
   gradientTransform="matrix(0.9997,-0.02593078,0.02593078,0.9997,-3.5236,0.9199)"
   y2="278.62"
   x2="147.5426"
   y1="310.92261"
   x1="203.49229"
   gradientUnits="userSpaceOnUse"
   id="SVGID_5_">
			<stop
   id="stop4831"
   style="stop-color:#60C6F2"
   offset="0.1861" />

			<stop
   id="stop4833"
   style="stop-color:#5AC2F0"
   offset="0.3301" />

			<stop
   id="stop4835"
   style="stop-color:#46B6E9"
   offset="0.4998" />

			<stop
   id="stop4837"
   style="stop-color:#18A4DD"
   offset="0.6825" />

			<stop
   id="stop4839"
   style="stop-color:#008BCD"
   offset="0.8731" />

			<stop
   id="stop4841"
   style="stop-color:#0079BF"
   offset="1" />

		</linearGradient>

		<path
   id="path4844"
   d="m 148.3,281 c 0.7,2.7 18.1,29.4 36.9,34.3 14.7,3.9 24.6,-7.2 25.2,-16.2 0.7,-10.3 -3.1,-19.1 -25.4,-25.2 -15.2,-4.2 -24.3,-5.6 -24.3,-5.6 z"
   class="st6"
   style="fill:url(#SVGID_5_)" />

		
			<linearGradient
   gradientTransform="matrix(0.9997,-0.02593078,0.02593078,0.9997,-3.5236,0.9199)"
   y2="249.6729"
   x2="148.8597"
   y1="182.4704"
   x1="211.52699"
   gradientUnits="userSpaceOnUse"
   id="SVGID_6_">
			<stop
   id="stop4846"
   style="stop-color:#60C6F2"
   offset="0.1861" />

			<stop
   id="stop4848"
   style="stop-color:#5AC2F0"
   offset="0.3301" />

			<stop
   id="stop4850"
   style="stop-color:#46B6E9"
   offset="0.4998" />

			<stop
   id="stop4852"
   style="stop-color:#18A4DD"
   offset="0.6825" />

			<stop
   id="stop4854"
   style="stop-color:#008BCD"
   offset="0.8731" />

			<stop
   id="stop4856"
   style="stop-color:#0079BF"
   offset="1" />

		</linearGradient>

		<path
   id="path4859"
   d="m 148.1,242.7 c 0,0 10.8,-45.1 29.3,-61.4 18.5,-16.3 31.1,-8.6 37,-1.6 5.9,7.1 9,16.5 2.5,27.9 -7.5,13.1 -19.1,22.8 -30.4,29.6 -11,6.7 -21.3,10.8 -28.8,14.6 z"
   class="st7"
   style="fill:url(#SVGID_6_)" />

		
			<linearGradient
   gradientTransform="matrix(0.9997,-0.02593078,0.02593078,0.9997,-3.5236,0.9199)"
   y2="247.8949"
   x2="134.3019"
   y1="153.66859"
   x1="139.2401"
   gradientUnits="userSpaceOnUse"
   id="SVGID_7_">
			<stop
   id="stop4861"
   style="stop-color:#60C6F2"
   offset="0.1861" />

			<stop
   id="stop4863"
   style="stop-color:#5AC2F0"
   offset="0.3301" />

			<stop
   id="stop4865"
   style="stop-color:#46B6E9"
   offset="0.4998" />

			<stop
   id="stop4867"
   style="stop-color:#18A4DD"
   offset="0.6825" />

			<stop
   id="stop4869"
   style="stop-color:#008BCD"
   offset="0.8731" />

			<stop
   id="stop4871"
   style="stop-color:#0079BF"
   offset="1" />

		</linearGradient>

		<path
   id="path4874"
   d="m 128.9,245 c 0,0 -26.7,-37.2 -12.7,-71.3 9.7,-23.4 33.4,-24 39.6,-21.5 13,5.2 10.5,20.3 6,36.3 -7.8,28 -15,53.8 -15,53.8 z"
   class="st8"
   style="fill:url(#SVGID_7_)" />

		
			<radialGradient
   gradientUnits="userSpaceOnUse"
   gradientTransform="matrix(0.9997,-0.02593078,0.02593078,0.9997,-3.5236,0.9199)"
   r="20.8778"
   cy="263.76569"
   cx="138.0959"
   id="SVGID_8_">
			<stop
   id="stop4876"
   style="stop-color:#FFDF00"
   offset="0" />

			<stop
   id="stop4878"
   style="stop-color:#FFDE00"
   offset="0.3758" />

			<stop
   id="stop4880"
   style="stop-color:#FFD900"
   offset="0.5867" />

			<stop
   id="stop4882"
   style="stop-color:#FDCF00"
   offset="0.7567" />

			<stop
   id="stop4884"
   style="stop-color:#FAC200"
   offset="0.9041" />

			<stop
   id="stop4886"
   style="stop-color:#F8B500"
   offset="1" />

		</radialGradient>

		<path
   id="path4889"
   d="m 147.8,242.2 c 7.6,4.2 17.5,16.4 13,27.8 -4.4,11.1 -15.8,13.5 -27,11.9 -4.6,-0.6 -9,-3.6 -11.3,-8.4 -2.8,-5.6 -1.3,-12.4 0.4,-18.1 3.5,-11.6 12.9,-19.8 24.9,-13.2 z"
   class="st9"
   style="fill:url(#SVGID_8_)" />

		<path
   id="path4891"
   d="m 170.2,316.4 c 0,-0.1 0,-0.2 -0.1,-0.3 0,0 0,0 0,0 0.1,0 0.1,0.1 0.1,0.3 z"
   class="st1"
   style="fill:#262a5e" />

		<path
   id="path4893"
   d="m 155.3,152 c 0,0 0,0 0,0 0,0 0,0 0,0 0.1,0 0.1,0 0,0 z"
   class="st1"
   style="fill:#262a5e" />

		<path
   id="path4895"
   d="m 154.2,271.1 c -0.4,0.1 -0.9,-0.1 -1.1,-0.9 -2.4,-8.8 -7.6,-17.4 -14.4,-21.6 -1.7,-1.1 -1.4,-2.5 0,-2.5 14.2,-0.7 18.9,14.8 16.8,22.4 -0.3,1 -0.4,2.3 -1.3,2.6 z"
   class="st10"
   style="fill:#ffffff" />

	</g>
  </g>
  <style
     type="text/css"
     id="style4747">
	.st0{fill:#221D4B;}
	.st1{fill:#262A5E;}
	.st2{fill:url(#SVGID_1_);}
	.st3{fill:url(#SVGID_2_);}
	.st4{fill:url(#SVGID_3_);}
	.st5{fill:url(#SVGID_4_);}
	.st6{fill:url(#SVGID_5_);}
	.st7{fill:url(#SVGID_6_);}
	.st8{fill:url(#SVGID_7_);}
	.st9{fill:url(#SVGID_8_);}
	.st10{fill:#FFFFFF;}
</style>
</svg>
